:version 1.10
:name ASF
:units
  mass 1
  length 1
  angle deg
:documentation
  ASF file generated by Kaydara
:root
  axis xyz
  order  tx ty tz rx ry rz
  position 0 0 0
  orientation 0 0 0
:bonedata
  begin
    id 1
    name abdomenDummy
    direction 1 -1.27917e-005 -1.26829e-007
    length 1.79048
    axis 0 0 0 xyz
  end
  begin
    id 2
    name abdomen
    direction 0.987238 0.159249 -9.68575e-008
    length 8.61378
    axis 2.73208e-005 5.54953e-006 9.16328 xyz
    dof rx ry rz
  end
  begin
    id 3
    name chest
    direction 0 0 0
    length 0
    axis 2.65071e-005 8.63688e-006 2.59796 xyz
    dof rx ry rz
  end
  begin
    id 4
    name neckDummyDummy
    direction 0.998972 0.0453274 -1.50742e-007
    length 9.56202
    axis 2.65071e-005 8.63688e-006 2.59796 xyz
  end
  begin
    id 5
    name neckDummy
    direction 0.99977 0.0214525 -1.61748e-007
    length 1.93574
    axis 2.62932e-005 9.26758e-006 1.22924 xyz
    dof rx ry rz
  end
  begin
    id 6
    name neck
    direction 0.99928 -0.0379406 -1.88707e-007
    length 3.70367
    axis 2.56966e-005 1.08122e-005 -2.17436 xyz
    dof rx ry rz
  end
  begin
    id 7
    name head
    direction 0.992648 -0.121037 -2.25408e-007
    length 6.35158
    axis 2.47068e-005 1.29149e-005 -6.95196 xyz
    dof rx ry rz
  end
  begin
    id 8
    name figureHair
    direction -0.86681 -0.498639 -7.83376e-008
    length 8.29884
    axis -2.7515e-005 4.48842e-006 -150.09 xyz
    dof rx ry rz
  end
  begin
    id 9
    name lCollarDummy
    direction 0.994611 0.0451299 -0.0933417
    length 9.60395
    axis 2.65071e-005 8.63688e-006 2.59796 xyz
  end
  begin
    id 10
    name lCollar
    direction 0.0384146 0.00127577 -0.999261
    length 6.95318
    axis 90.4899 87.7973 1.90202 xyz
    dof rx ry rz
  end
  begin
    id 11
    name lShldr
    direction -0.030648 0.0920515 -0.995282
    length 9.61158
    axis -161.793 84.4324 108.415 xyz
    dof rx ry rz
  end
  begin
    id 12
    name lForeArm
    direction 0.000163956 -0.0977586 -0.99521
    length 8.6068
    axis 0.134773 84.3899 -89.8525 xyz
    dof rx ry rz
  end
  begin
    id 13
    name lHand
    direction -0.0190533 -0.1444 -0.989336
    length 7.61479
    axis -7.3729 81.6249 -97.517 xyz
    dof rx ry rz
  end
  begin
    id 14
    name rCollarDummy
    direction 0.994871 0.0442627 0.0909555
    length 9.60761
    axis 2.65071e-005 8.63688e-006 2.59796 xyz
  end
  begin
    id 15
    name rCollar
    direction 0.0334251 -4.74072e-007 0.999441
    length 6.97058
    axis -178.152 -88.0845 -0.000674207 xyz
    dof rx ry rz
  end
  begin
    id 16
    name rShldr
    direction -0.026922 0.0719509 0.997045
    length 9.60913
    axis 71.2822 -85.594 110.514 xyz
    dof rx ry rz
  end
  begin
    id 17
    name rForeArm
    direction 0.00134679 -0.118986 0.992895
    length 8.57176
    axis -88.7923 -83.1659 -89.3516 xyz
    dof rx ry rz
  end
  begin
    id 18
    name rHand
    direction -0.0185183 -0.0768601 0.99687
    length 7.69687
    axis -74.5596 -85.4655 -103.546 xyz
    dof rx ry rz
  end
  begin
    id 19
    name lThighDummy
    direction -0.236086 -0.0385456 -0.970967
    length 4.99155
    axis 0 0 0 xyz
  end
  begin
    id 20
    name lThigh
    direction -0.993968 0.0148998 -0.108653
    length 13.572
    axis -91.4001 6.23768 179.141 xyz
    dof rx ry rz
  end
  begin
    id 21
    name lShin
    direction -0.992341 0.0904576 -0.0841193
    length 18.5862
    axis -91.4558 4.82538 174.792 xyz
    dof rx ry rz
  end
  begin
    id 22
    name lFoot
    direction 0.0209381 -0.999771 -0.00453005
    length 8.44474
    axis 4.86759 0.259522 -88.8001 xyz
    dof rx ry rz
  end
  begin
    id 23
    name rThighDummy
    direction -0.236086 -0.0385456 0.970967
    length 4.99155
    axis 0 0 0 xyz
  end
  begin
    id 24
    name rThigh
    direction -0.993968 0.0148995 0.108653
    length 13.5721
    axis -89.7059 -6.2377 179.141 xyz
    dof rx ry rz
  end
  begin
    id 25
    name rShin
    direction -0.9925 0.0899962 0.0827255
    length 18.6716
    axis -89.2745 -4.74775 174.819 xyz
    dof rx ry rz
  end
  begin
    id 26
    name rFoot
    direction 0.0301721 -0.999545 9.70865e-005
    length 8.45013
    axis -2.50066e-005 -0.00555246 -88.271 xyz
    dof rx ry rz
  end
:hierarchy
  begin
    root abdomenDummy lThighDummy rThighDummy
    abdomenDummy abdomen
    abdomen chest
    chest neckDummyDummy lCollarDummy rCollarDummy
    neckDummyDummy neckDummy
    neckDummy neck
    neck head
    head figureHair
    lCollarDummy lCollar
    lCollar lShldr
    lShldr lForeArm
    lForeArm lHand
    rCollarDummy rCollar
    rCollar rShldr
    rShldr rForeArm
    rForeArm rHand
    lThighDummy lThigh
    lThigh lShin
    lShin lFoot
    rThighDummy rThigh
    rThigh rShin
    rShin rFoot
  end

:SAMPLES-PER-SECOND 25
:FULLY-SPECIFIED
:DEGREES
874
root  3.48893 36.9891 -2.32383 171.849 0.0604248 88.5736
abdomen  -0.810499 -12.2279 -7.62839
chest  2.78074 15.0966 0.5247
neckDummy  9.09964e-021 0 8.72668e-016
neck  18.4867 21.0497 78.8955
head  -6.88739 -15.6998 -2.70262
figureHair  0 1.51661e-021 -9.5315e-016
lCollar  -5.15695e-016 -6.42944e-016 -7.59357e-014
lShldr  18.6042 11.3494 -70.1765
lForeArm  25.6495 -30.1332 -0.175388
lHand  0.254698 0.195082 5.2986
rCollar  1.7976e-016 -5.12864e-014 1.62755e-015
rShldr  -8.81835 75.9347 17.9174
rForeArm  0.931793 1.08889 20.1803
rHand  0.61295 -12.678 -0.515129
lThigh  -7.36596 2.42809 0.427296
lShin  -16.3451 0.235184 -5.44746
lFoot  4.26799 -0.396609 -2.09792
rThigh  9.27476 -5.11885 -0.414963
rShin  0.148937 7.68753 2.7628
rFoot  -5.13177 0.264414 -2.7876
875
root  3.49656 36.9899 -2.29125 172.202 0.0812988 88.4243
abdomen  -0.653137 -11.6844 -7.53826
chest  2.59537 13.5861 0.327677
neckDummy  9.09964e-021 0 8.72668e-016
neck  14.2283 19.7126 78.5223
head  -8.64241 -16.2804 -3.82528
figureHair  0 1.51661e-021 -9.5315e-016
lCollar  -5.15695e-016 -6.42944e-016 -7.59357e-014
lShldr  19.1341 10.8174 -70.6086
lForeArm  25.6163 -30.0585 -0.179461
lHand  0.254698 0.195082 5.2986
rCollar  1.7976e-016 -5.12864e-014 1.62755e-015
rShldr  -8.03883 75.4704 18.2092
rForeArm  0.534669 1.08946 20.1976
rHand  0.610185 -12.5121 -0.555353
lThigh  -7.35293 2.41529 0.348981
lShin  -16.0197 0.357161 -5.41412
lFoot  4.34859 -0.404437 -2.08901
rThigh  9.38834 -4.93524 -0.538728
rShin  0.376637 7.73091 2.80609
rFoot  -5.11211 0.269783 -2.73102
876
root  3.51026 36.9908 -2.26256 172.55 0.0664673 88.1926
abdomen  -0.435397 -10.7967 -7.36622
chest  2.32724 11.5986 -0.342041
neckDummy  9.09964e-021 0 8.72668e-016
neck  9.45055 17.9168 78.238
head  -10.2868 -16.4387 -5.48213
figureHair  0 1.51661e-021 -9.5315e-016
lCollar  -5.15695e-016 -6.42944e-016 -7.59357e-014
lShldr  20.0911 9.96556 -71.0598
lForeArm  25.2806 -30.1736 -0.175417
lHand  0.254698 0.195082 5.2986
rCollar  1.7976e-016 -5.12864e-014 1.62755e-015
rShldr  -5.51009 75.1662 19.1122
rForeArm  -0.662329 1.09068 20.1642
rHand  0.593834 -12.2656 -0.520006
lThigh  -7.4085 2.4725 0.323816
lShin  -15.6144 0.511184 -5.40079
lFoot  4.47104 -0.416573 -2.07097
rThigh  9.45079 -4.65658 -0.609615
rShin  0.626932 7.74683 2.83114
rFoot  -5.08564 0.271679 -2.69605
877
root  3.53342 36.993 -2.23513 172.952 0.000335693 87.8027
abdomen  -0.254204 -9.74097 -7.29517
chest  1.9615 9.40918 -1.34174
neckDummy  9.09964e-021 0 8.72668e-016
neck  4.04608 15.11 78.3034
head  -11.4074 -15.2031 -7.80909
figureHair  0 1.51661e-021 -9.5315e-016
lCollar  -5.15695e-016 -6.42944e-016 -7.59357e-014
lShldr  21.2167 8.82716 -71.4748
lForeArm  25.3232 -30.2219 -0.170945
lHand  0.254698 0.195082 5.2986
rCollar  1.7976e-016 -5.12864e-014 1.62755e-015
rShldr  -1.46709 74.9809 21.1005
rForeArm  -1.93859 1.09402 19.9233
rHand  0.589171 -12.1772 -0.516638
lThigh  -7.47577 2.64795 0.329729
lShin  -15.1285 0.701473 -5.34468
lFoot  4.52024 -0.421885 -2.05315
rThigh  9.48287 -4.14778 -0.631898
rShin  0.938836 7.63033 2.86719
rFoot  -5.03975 0.263724 -2.7231
878
root  3.5763 36.9987 -2.20357 173.433 -0.0961914 87.4561
abdomen  -0.170405 -8.57503 -7.24101
chest  1.49128 7.07937 -2.45505
neckDummy  9.09964e-021 0 8.72668e-016
neck  -2.16629 11.1612 78.1818
head  -12.0845 -12.2205 -10.2457
figureHair  0 1.51661e-021 -9.5315e-016
lCollar  -5.15695e-016 -6.42944e-016 -7.59357e-014
lShldr  22.2871 7.62662 -71.8687
lForeArm  25.7251 -30.3134 -0.166547
lHand  0.254698 0.195082 5.2986
rCollar  1.7976e-016 -5.12864e-014 1.62755e-015
rShldr  3.1563 74.7201 24.1536
rForeArm  -3.04181 1.09858 19.4377
rHand  0.594268 -12.104 -0.585355
lThigh  -7.52572 2.70697 0.33852
lShin  -14.5919 0.967399 -5.20494
lFoot  4.49926 -0.420618 -2.03576
rThigh  9.46777 -3.56172 -0.604721
rShin  1.38094 7.31083 2.93325
rFoot  -4.97261 0.242134 -2.84113
879
root  3.63141 37.0055 -2.16798 173.932 -0.172913 87.298
abdomen  -0.11697 -7.19903 -6.9255
chest  0.979128 4.39481 -3.59221
neckDummy  9.09964e-021 0 8.72668e-016
neck  -8.53688 6.8874 76.9006
head  -12.7717 -8.73077 -11.5244
figureHair  0 1.51661e-021 -9.5315e-016
lCollar  -5.15695e-016 -6.42944e-016 -7.59357e-014
lShldr  23.541 6.52344 -72.2779
lForeArm  25.8856 -30.4889 -0.157921
lHand  0.254698 0.195082 5.2986
rCollar  1.7976e-016 -5.12864e-014 1.62755e-015
rShldr  8.11381 74.4413 27.6592
rForeArm  -4.1019 1.1172 18.7234
rHand  0.583652 -12.2863 -0.432719
lThigh  -7.56051 2.46407 0.341675
lShin  -14.0799 1.33623 -5.05254
lFoot  4.50169 -0.422634 -1.99106
rThigh  9.43157 -3.19054 -0.576459
rShin  1.86024 6.96277 3.01268
rFoot  -4.92989 0.217783 -3.00006
880
root  3.68688 37.0106 -2.1308 174.396 -0.208878 87.2515
abdomen  -0.0822545 -5.74446 -6.46947
chest  0.482309 1.5834 -4.57429
neckDummy  9.09964e-021 0 8.72668e-016
neck  -14.1769 2.79491 73.6107
head  -13.4067 -6.01445 -11.1232
figureHair  0 1.51661e-021 -9.5315e-016
lCollar  -5.15695e-016 -6.42944e-016 -7.59357e-014
lShldr  24.9448 5.59624 -72.6461
lForeArm  25.8808 -30.5445 -0.155184
lHand  0.254698 0.195082 5.2986
rCollar  1.7976e-016 -5.12864e-014 1.62755e-015
rShldr  13.6352 74.2631 31.1842
rForeArm  -5.351 1.21413 17.8514
rHand  0.528062 -12.7256 0.155817
lThigh  -7.58733 2.1338 0.346641
lShin  -13.6122 1.66726 -4.97396
lFoot  4.52216 -0.426101 -1.95239
rThigh  9.45128 -3.01555 -0.605652
rShin  2.25998 6.74149 3.1036
rFoot  -4.94441 0.202407 -3.13165
881
root  3.7424 37.0135 -2.0849 174.773 -0.226013 87.1744
abdomen  -0.156613 -4.6105 -6.15567
chest  0.00733257 -0.651571 -5.26818
neckDummy  9.09964e-021 0 8.72668e-016
neck  -19.1212 -1.5633 68.4676
head  -13.7631 -4.0299 -10.0449
figureHair  0 1.51661e-021 -9.5315e-016
lCollar  -5.15695e-016 -6.42944e-016 -7.59357e-014
lShldr  26.2958 4.92491 -72.7256
lForeArm  25.9994 -30.6215 -0.151357
lHand  0.254698 0.195082 5.2986
rCollar  1.7976e-016 -5.12864e-014 1.62755e-015
rShldr  19.0686 74.1299 34.5754
rForeArm  -6.58173 1.37063 17.0549
rHand  0.465018 -13.0052 0.722082
lThigh  -7.60625 1.96053 0.335152
lShin  -13.2337 1.82385 -4.96044
lFoot  4.52851 -0.426273 -1.96323
rThigh  9.51066 -2.86274 -0.682844
rShin  2.55328 6.58225 3.18866
rFoot  -4.92117 0.18625 -3.24178
882
root  3.79575 37.0156 -2.02027 174.965 -0.238159 87.1035
abdomen  -0.353511 -3.82509 -5.76742
chest  -0.461962 -2.30355 -6.07989
neckDummy  9.09964e-021 0 8.72668e-016
neck  -23.3394 -5.91247 62.6266
head  -14.074 -2.84387 -9.86401
figureHair  0 1.51661e-021 -9.5315e-016
lCollar  -5.15695e-016 -6.42944e-016 -7.59357e-014
lShldr  27.4633 4.40464 -72.5469
lForeArm  26.0952 -31.0347 -0.130825
lHand  0.254698 0.195082 5.2986
rCollar  1.7976e-016 -5.12864e-014 1.62755e-015
rShldr  23.515 73.8113 37.9091
rForeArm  -7.17848 1.48093 16.588
rHand  0.472386 -13.1871 0.71722
lThigh  -7.61751 1.84417 0.285905
lShin  -13.0429 1.93992 -4.98336
lFoot  4.58578 -0.431935 -1.95674
rThigh  9.53133 -2.75003 -0.76406
rShin  2.70773 6.41275 3.2039
rFoot  -4.79595 0.156964 -3.38199
883
root  3.84275 37.0179 -1.94872 174.986 -0.228485 87.0572
abdomen  -0.638335 -2.87446 -4.96334
chest  -0.989351 -4.0817 -7.67879
neckDummy  9.09964e-021 0 8.72668e-016
neck  -26.438 -9.27743 57.5022
head  -14.5491 -2.81988 -11.8066
figureHair  0 1.51661e-021 -9.5315e-016
lCollar  -5.15695e-016 -6.42944e-016 -7.59357e-014
lShldr  27.9125 3.72772 -72.4902
lForeArm  26.087 -31.5825 -0.103389
lHand  0.254698 0.195082 5.2986
rCollar  1.7976e-016 -5.12864e-014 1.62755e-015
rShldr  27.4201 72.9608 41.9873
rForeArm  -7.32743 1.55182 16.3426
rHand  0.51646 -13.3815 0.444373
lThigh  -7.64385 1.76949 0.214184
lShin  -12.9976 2.0019 -5.06616
lFoot  4.73192 -0.446022 -1.95002
rThigh  9.51229 -2.7513 -0.84052
rShin  2.7253 6.31972 3.13017
rFoot  -4.69737 0.129434 -3.52972
884
root  3.88487 37.0193 -1.88913 174.9 -0.22438 86.9906
abdomen  -0.943116 -1.94665 -4.20735
chest  -1.4608 -5.51741 -9.21696
neckDummy  9.09964e-021 0 8.72668e-016
neck  -28.6425 -12.2398 51.5164
head  -15.058 -3.48324 -14.2414
figureHair  0 1.51661e-021 -9.5315e-016
lCollar  -5.15695e-016 -6.42944e-016 -7.59357e-014
lShldr  27.6042 3.19368 -72.4522
lForeArm  26.1324 -31.8573 -0.0894762
lHand  0.254698 0.195082 5.2986
rCollar  1.7976e-016 -5.12864e-014 1.62755e-015
rShldr  30.2965 72.1129 45.6349
rForeArm  -7.69823 1.63827 16.1004
rHand  0.513202 -13.2938 0.443529
lThigh  -7.70118 1.78072 0.172576
lShin  -13.015 2.01691 -5.18185
lFoot  4.84817 -0.4564 -1.96402
rThigh  9.49402 -2.78675 -0.89962
rShin  2.66265 6.30777 3.04218
rFoot  -4.69106 0.114644 -3.64363
885
root  3.92185 37.0201 -1.83436 174.693 -0.244507 86.9316
abdomen  -1.20259 -1.55401 -3.67092
chest  -1.75206 -5.97673 -10.1586
neckDummy  9.09964e-021 0 8.72668e-016
neck  -29.9001 -15.1241 43.9366
head  -15.5267 -4.36233 -16.2341
figureHair  0 1.51661e-021 -9.5315e-016
lCollar  -5.15695e-016 -6.42944e-016 -7.59357e-014
lShldr  27.2095 2.90621 -72.2469
lForeArm  26.0906 -31.8293 -0.0908706
lHand  0.254698 0.195082 5.2986
rCollar  1.7976e-016 -5.12864e-014 1.62755e-015
rShldr  32.2576 71.7237 48.1698
rForeArm  -8.07488 1.76844 15.7511
rHand  0.491333 -13.0297 0.529319
lThigh  -7.71494 1.83456 0.127593
lShin  -13.2217 1.99573 -5.25581
lFoot  4.8916 -0.460093 -1.97341
rThigh  9.4913 -2.81271 -0.948957
rShin  2.46224 6.25129 2.99264
rFoot  -4.64176 0.0943198 -3.77185
